# xmcd CD database file
# Copyright (C) 1993-1998 Ti Kan
#
# Track frame offsets:
#  150
#  12770
#  25460
#  36847
#  50337
#  62935
#  76385
#  88170
#  101222
#  113335
#  125307
#  136850
#  149482
#  161705
#  173132
#  186557
#  198782
#  211832
#  224160
#  236010
#  248357
#  260237
#  272515
#  284107
#  296495
#
# Disc length: 4102 seconds
#
# Revision: 1
# Processed by: cddbd v1.4b41PL1 Copyright (c) Steve Scherf et al.
# Submitted via: CDWizzard Release:4.32
#
DISCID=7f100419
DTITLE=Dupree, Champion Jack - New Orleans Barrelhouse Boogie
DYEAR=1900
DGENRE=
TTITLE0=Gamblin' Man Blues
TTITLE1=Warehouse Man Blues
TTITLE2=Chain Gang Blues
TTITLE3=New Log Down Dog
TTITLE4=Black Woman Swing
TTITLE5=Cabbage Greens No. 1
TTITLE6=Cabbage Greens No. 2
TTITLE7=Angola Blues
TTITLE8=My Cabin Inn
TTITLE9=Bad Health Blues
TTITLE10=That's All Right
TTITLE11=Gibin' Blues
TTITLE12=Dupree Shake Dance
TTITLE13=My Baby's Gone
TTITLE14=Weed Head Woman
TTITLE15=Junker Blues
TTITLE16=Oh, Red
TTITLE17=All Alone Blues
TTITLE18=Big Time Mama
TTITLE19=Shady Lane
TTITLE20=Hurry Down Sunshine
TTITLE21=Jackie P. Blues
TTITLE22=Heavy Heart Blues
TTITLE23=Mornin' Tea
TTITLE24=Black Cow Blues
EXTD=
EXTT0=
EXTT1=
EXTT2=
EXTT3=
EXTT4=
EXTT5=
EXTT6=
EXTT7=
EXTT8=
EXTT9=
EXTT10=
EXTT11=
EXTT12=
EXTT13=
EXTT14=
EXTT15=
EXTT16=
EXTT17=
EXTT18=
EXTT19=
EXTT20=
EXTT21=
EXTT22=
EXTT23=
EXTT24=
PLAYORDER=
